<?xml version="1.0" encoding="utf-8"?>
<!-- Generator: Adobe Illustrator 17.0.0, SVG Export Plug-In . SVG Version: 6.00 Build 0)  -->
<!DOCTYPE svg PUBLIC "-//W3C//DTD SVG 1.1//EN" "http://www.w3.org/Graphics/SVG/1.1/DTD/svg11.dtd">
<svg version="1.1" id="Calque_1" xmlns="http://www.w3.org/2000/svg" xmlns:xlink="http://www.w3.org/1999/xlink" x="0px" y="0px"
	 width="904.59px" height="379.62px" viewBox="0 0 904.59 379.62" enable-background="new 0 0 904.59 379.62" xml:space="preserve">
<g>
	<g>
		<path fill-rule="evenodd" clip-rule="evenodd" d="M482.22,116.28l58.258,27.36h300.029l64.084,37.62v-64.98H482.22z
			 M540.478,235.98l-58.258,27.36h422.37v-64.98l-64.084,37.62H540.478z M877.23,352.26H546.304l-64.084-37.62v64.98h422.37v-99.18
			h-27.36V352.26z M0,181.26l64.084-37.62h300.028l58.258-27.36H0V181.26z M64.084,235.98L0,198.36v64.98h422.37l-58.258-27.36
			H64.084z M0,64.98l64.084-37.62h315.313l58.363,37.62v198.36h27.36V0H0V64.98z"/>
	</g>
</g>
</svg>
