<?xml version="1.0" encoding="utf-8"?>
<!-- Generator: Adobe Illustrator 16.0.4, SVG Export Plug-In . SVG Version: 6.00 Build 0)  -->
<!DOCTYPE svg PUBLIC "-//W3C//DTD SVG 1.1//EN" "http://www.w3.org/Graphics/SVG/1.1/DTD/svg11.dtd">
<svg version="1.1" id="Layer_1" xmlns="http://www.w3.org/2000/svg" xmlns:xlink="http://www.w3.org/1999/xlink" x="0px" y="0px"
	 width="50px" height="50px" viewBox="0 0 50 50" enable-background="new 0 0 50 50" xml:space="preserve">
<g>
	<path d="M33.59,34.664c0,0,0.883-5.44-0.484-8.74c0,0-0.734-2.657-0.73-3.401c0,0-7.669,5.069-10.643,4.633
		c0,0,3.94-2.641,4.584-4.02c0,0-6.073,4.227-8.09,3.899c0,0,2.023-1.374,2.451-2.115c0,0-4.783,0.938-4.91,5.824l-0.547,4.034
		c0,0-1.02-4.922-1.356-6.062c-1.044-3.509,0.391-9.512,1.954-10.723c0,0,2.889-4.983,13.188-3.454c0,0,5.465,0.266,7.348,7.64
		c0.439,1.722-0.254,5.583-0.816,7.048c-0.559,1.451-2.008,6.524-2.008,6.524L33.59,34.664z"/>
</g>
</svg>
